<?xml version="1.0" standalone="no"?>
<!DOCTYPE svg PUBLIC "-//W3C//DTD SVG 20010904//EN"
 "http://www.w3.org/TR/2001/REC-SVG-20010904/DTD/svg10.dtd">
<svg version="1.0" xmlns="http://www.w3.org/2000/svg"
 width="720.000000pt" height="715.000000pt" viewBox="0 0 720.000000 715.000000"
 preserveAspectRatio="xMidYMid meet">

<g transform="translate(0.000000,715.000000) scale(0.100000,-0.100000)"
fill="#000000" stroke="none">
<path d="M555 7140 c3 -5 8 -10 11 -10 2 0 4 5 4 10 0 6 -5 10 -11 10 -5 0 -7
-4 -4 -10z"/>
<path d="M580 7139 c0 -5 5 -7 10 -4 6 4 17 2 24 -4 9 -8 22 -8 40 -1 39 14
32 20 -24 20 -29 0 -50 -5 -50 -11z" />
<path d="M3635 7100 c-133 -20 -353 -99 -439 -157 l-69 -47 -101 -1 c-97 -1
-104 -3 -176 -39 -41 -21 -93 -53 -115 -70 -22 -18 -72 -53 -111 -78 -38 -25
-89 -65 -112 -89 -28 -30 -78 -63 -156 -103 -105 -54 -124 -68 -208 -156 -116
-120 -135 -144 -238 -305 -46 -71 -107 -161 -135 -200 -71 -96 -82 -119 -90
-200 -3 -38 -11 -83 -17 -100 -21 -61 -74 -158 -92 -171 -11 -7 -25 -28 -30
-45 -6 -18 -32 -50 -58 -72 -46 -39 -47 -39 -75 -22 -15 9 -40 36 -55 61 -31
51 -73 68 -94 39 -18 -25 5 -68 67 -123 59 -52 73 -98 40 -131 -25 -25 -30
-84 -6 -75 8 4 15 14 16 23 1 9 5 -1 10 -22 9 -37 5 -50 -56 -182 -42 -88
-126 -353 -140 -435 -10 -59 -35 -103 -51 -89 -9 7 -17 3 -28 -13 -12 -17 -18
-20 -28 -10 -7 7 -19 12 -27 12 -9 0 -28 6 -43 14 -14 8 -50 17 -80 21 -78 10
-119 24 -156 56 -37 33 -74 37 -137 15 -22 -8 -73 -17 -114 -20 -86 -6 -99
-14 -85 -53 9 -24 15 -28 44 -25 19 1 41 -1 49 -4 21 -10 32 -12 126 -23 115
-13 182 -54 220 -134 24 -52 27 -67 23 -135 -5 -81 -33 -182 -74 -267 -31 -66
-42 -118 -49 -245 -4 -76 -11 -116 -26 -147 l-20 -42 35 -31 c26 -23 37 -42
41 -75 4 -24 3 -51 -3 -61 -8 -15 -13 -12 -31 24 -28 54 -47 64 -90 46 -62
-26 -139 -11 -179 35 -18 22 -22 36 -20 91 2 82 -8 85 -90 30 -70 -46 -84 -48
-130 -20 -77 47 -121 128 -127 230 -3 60 -7 68 -44 106 -23 23 -41 45 -41 48
0 4 -13 21 -30 39 l-30 32 0 -257 0 -258 44 -11 c64 -16 96 -54 98 -114 1 -86
-46 -93 -100 -14 -13 19 -27 36 -33 37 -5 2 -9 -61 -9 -157 0 -89 3 -161 6
-161 3 0 14 5 26 11 16 9 24 6 46 -18 31 -34 70 -32 87 4 20 45 115 27 187
-36 27 -24 57 -40 81 -44 21 -3 51 -13 68 -21 22 -11 37 -13 49 -6 13 7 19 6
23 -3 9 -24 -1 -193 -14 -242 -14 -48 -15 -50 -47 -47 -43 4 -53 -21 -20 -51
60 -56 31 -178 -39 -162 -12 3 -24 2 -26 -2 -8 -13 12 -53 25 -53 34 -1 55
-36 61 -99 4 -54 3 -65 -14 -79 -14 -12 -19 -29 -19 -62 1 -80 18 -173 34
-182 19 -11 21 -50 4 -81 -10 -19 -9 -20 4 -10 12 11 17 9 26 -13 7 -14 12
-33 12 -42 0 -9 7 -26 15 -36 8 -11 15 -36 15 -56 0 -19 7 -45 15 -57 15 -21
14 -23 -12 -28 -15 -4 -40 -13 -55 -21 -14 -8 -45 -14 -68 -14 -38 0 -50 7
-112 62 -39 34 -74 73 -80 87 -17 47 -11 107 16 154 14 24 23 47 19 50 -4 4 6
20 21 36 21 22 27 36 24 62 -2 19 2 39 9 44 42 35 10 104 -50 106 -83 4 -98 7
-131 24 -20 11 -36 24 -36 30 0 32 23 85 39 90 11 3 22 17 25 30 7 28 41 42
62 25 11 -10 19 -8 40 14 l26 26 -26 10 c-15 5 -32 10 -37 10 -5 0 -13 10 -18
23 -9 23 -55 35 -66 18 -7 -13 -47 -1 -42 13 3 6 9 10 15 9 6 -2 22 8 36 20
22 21 152 61 199 62 17 0 36 20 37 37 0 12 -92 49 -135 54 -22 3 -55 10 -72
15 -18 6 -45 9 -59 7 -23 -3 -29 3 -43 38 -9 22 -21 39 -28 37 -6 -2 -14 9
-18 25 -8 37 -40 72 -65 72 -20 0 -20 -10 -18 -767 3 -758 3 -767 23 -773 36
-9 95 -55 101 -77 3 -12 13 -24 21 -27 10 -4 13 -13 8 -24 -3 -9 -9 -39 -11
-67 -5 -48 -66 -189 -87 -202 -6 -4 -8 9 -4 35 8 46 -2 59 -33 40 -17 -11 -20
-23 -20 -79 0 -37 6 -81 13 -99 13 -29 15 -30 30 -16 8 9 25 16 37 16 19 0 21
4 15 31 -5 21 -1 44 10 70 21 46 28 48 43 14 16 -35 15 -61 -4 -90 -8 -13 -17
-50 -20 -82 -3 -32 -6 -75 -8 -95 -3 -24 0 -37 7 -35 9 1 13 -38 15 -133 3
-150 0 -171 -27 -197 -19 -18 -25 -54 -22 -120 l1 -33 1349 0 1350 0 -5 38
c-3 20 -15 75 -26 122 -22 90 -24 122 -19 263 4 97 17 123 57 113 12 -3 25 -2
28 3 9 14 104 -12 118 -32 3 -6 21 -10 40 -9 24 1 39 -6 53 -23 12 -15 40 -29
70 -36 28 -7 64 -18 80 -24 17 -7 57 -15 90 -18 33 -3 71 -8 85 -11 71 -17
444 -22 528 -8 29 5 58 16 65 24 16 19 63 48 79 48 7 0 30 16 51 34 20 19 57
44 80 55 24 12 60 41 81 66 22 25 44 45 51 45 15 0 85 88 85 106 0 7 8 18 19
23 10 6 24 24 31 41 7 16 16 30 20 30 12 0 29 20 70 79 19 28 39 51 45 51 5 0
28 20 52 45 23 25 49 45 58 45 8 0 15 5 15 10 0 6 7 10 15 10 8 0 15 7 15 15
0 24 36 17 54 -10 9 -14 21 -23 26 -20 6 4 10 0 10 -7 0 -7 5 -20 10 -28 9
-13 11 -13 20 0 6 10 8 4 3 -22 -3 -20 -2 -45 1 -55 7 -17 8 -17 21 1 13 17
14 15 20 -20 4 -22 13 -54 22 -72 9 -20 12 -45 8 -62 -4 -17 -2 -30 3 -30 8 0
27 -73 38 -150 3 -19 9 -44 14 -55 5 -11 11 -42 13 -70 6 -58 17 -106 27 -120
4 -5 11 -26 15 -45 4 -19 12 -41 18 -48 5 -7 7 -15 4 -18 -3 -3 1 -21 9 -39 8
-19 14 -51 15 -72 0 -21 4 -47 9 -58 7 -19 9 -18 19 8 6 16 11 36 11 46 0 53
13 80 39 83 25 3 40 -4 110 -52 20 -13 39 -18 58 -14 31 6 121 -15 171 -41 36
-19 40 -37 17 -92 -8 -19 -15 -37 -15 -39 0 -2 309 -4 686 -4 l685 0 -26 22
c-26 23 -26 23 -24 173 0 83 1 161 2 175 1 33 -11 149 -17 158 -2 4 -23 79
-46 166 -22 86 -47 174 -54 194 -24 62 -28 102 -11 102 17 0 20 37 5 60 -8 12
-10 12 -11 -5 0 -17 -2 -17 -12 5 -7 14 -22 40 -35 57 -39 55 -101 263 -122
409 -13 91 1 246 26 295 7 15 20 62 29 105 9 44 22 108 30 144 20 91 37 228
33 270 -3 37 14 59 20 25 7 -33 22 -47 38 -34 8 6 14 10 14 8 0 -2 9 -47 20
-99 11 -52 25 -149 30 -215 6 -66 15 -146 20 -178 8 -51 6 -69 -15 -134 -33
-101 -50 -194 -41 -229 7 -27 9 -28 21 -11 7 10 16 44 20 75 4 31 15 71 26 88
11 19 19 50 19 77 0 26 5 78 12 116 21 126 -10 449 -57 576 -25 68 -58 150
-84 208 -17 37 -37 105 -45 150 -8 45 -29 147 -46 227 -17 80 -35 172 -41 204
-10 59 -37 163 -102 391 -19 66 -44 179 -56 250 -12 72 -38 185 -58 253 -19
68 -37 151 -40 185 l-4 62 19 -22 20 -23 -5 63 c-11 140 -35 241 -69 287 -6 8
-14 53 -17 100 -4 67 -13 101 -40 162 -18 42 -41 88 -50 102 -9 14 -17 29 -17
33 0 52 -280 633 -335 693 -26 29 -168 217 -205 273 -14 20 -28 37 -32 37 -4
0 -28 28 -54 63 -26 34 -64 80 -83 102 -20 23 -63 72 -96 110 -83 97 -229 241
-299 295 -32 25 -77 61 -100 81 -48 41 -197 140 -345 228 -98 57 -154 83 -226
101 -16 4 -79 21 -140 38 -176 49 -265 62 -399 61 -66 -1 -143 -5 -171 -9z
m-318 -1220 c21 -11 46 -20 55 -20 10 0 37 -4 60 -10 185 -42 236 -50 353 -55
308 -11 425 -32 658 -114 143 -51 227 -104 366 -229 117 -105 311 -377 393
-550 103 -218 205 -651 222 -942 2 -47 9 -173 15 -280 6 -107 18 -257 26 -334
8 -76 15 -173 15 -215 0 -70 -24 -216 -49 -293 -5 -18 -19 -83 -31 -144 -11
-62 -35 -152 -51 -200 -17 -49 -35 -118 -39 -154 -38 -293 -207 -614 -445
-841 -22 -21 -44 -43 -50 -49 -5 -5 -36 -36 -69 -68 -323 -316 -391 -379 -456
-423 -21 -14 -45 -33 -54 -41 -14 -14 -41 -29 -146 -76 -19 -8 -55 -25 -80
-38 -25 -12 -61 -25 -80 -29 -19 -4 -41 -12 -47 -17 -7 -6 -61 -19 -120 -29
-111 -20 -240 -20 -343 1 -130 26 -158 34 -190 50 -19 10 -54 27 -77 38 -49
24 -114 71 -197 145 -78 69 -176 170 -176 181 0 8 -61 78 -126 146 -13 14 -24
31 -24 38 0 6 -7 12 -15 12 -8 0 -15 9 -15 19 0 11 -11 32 -25 47 -14 15 -25
33 -25 39 0 7 -7 15 -15 19 -8 3 -15 15 -15 26 0 11 -4 20 -10 20 -5 0 -10 -5
-10 -11 0 -5 -4 -7 -10 -4 -5 3 -10 20 -10 37 0 25 -3 29 -20 25 -11 -3 -18
-1 -15 4 3 4 -1 22 -10 39 -13 25 -19 29 -30 20 -16 -13 -31 8 -39 55 -6 31
-36 70 -36 47 0 -7 -4 -11 -10 -7 -5 3 -7 12 -3 21 3 9 0 14 -8 12 -9 -2 -13
4 -11 16 2 10 -1 15 -6 12 -30 -19 -185 315 -222 479 -5 22 -16 72 -24 110
-20 89 -37 145 -52 170 -7 11 -15 36 -19 55 -4 19 -14 48 -23 65 -18 35 -67
232 -83 330 -6 39 -13 221 -16 405 -5 293 -3 365 16 570 25 268 34 329 67 455
29 108 66 277 88 400 29 161 100 282 322 546 196 234 261 287 521 419 105 54
144 69 195 74 34 4 81 15 103 26 53 24 107 25 152 0z m-2261 -1837 c5 -2 20 6
32 17 11 11 23 20 25 20 5 0 2 -105 -6 -215 -2 -33 -12 -94 -21 -135 -18 -77
-109 -371 -132 -425 -7 -16 -16 -39 -19 -50 -6 -16 -8 -17 -13 -5 -3 8 -11 20
-17 25 -19 16 -58 169 -51 201 3 16 8 65 11 109 3 44 10 94 17 110 14 36 38
66 48 60 10 -6 37 67 50 134 5 30 15 60 21 67 6 8 13 26 14 41 2 16 7 44 11
63 7 32 8 33 14 11 3 -14 10 -26 16 -28z m-156 -857 c0 -8 -4 -18 -10 -21 -5
-3 -10 3 -10 14 0 12 5 21 10 21 6 0 10 -6 10 -14z m-293 -128 c49 -23 91 -61
114 -103 21 -41 22 -48 5 -51 -8 -1 -25 -12 -38 -24 -24 -22 -59 -21 -88 5 -8
7 -29 16 -45 19 -52 11 -91 42 -114 88 -21 45 -28 94 -12 83 5 -3 12 -1 15 3
9 15 119 1 163 -20z m218 -205 c-4 -20 -18 -58 -31 -85 -13 -26 -24 -54 -24
-63 0 -19 -26 -20 -33 -1 -3 7 -1 18 5 24 12 12 4 42 -12 42 -5 0 -10 -10 -10
-22 0 -17 -3 -19 -12 -10 -9 9 -9 15 0 24 7 7 12 23 12 36 0 13 4 20 10 17 6
-3 15 6 20 21 13 32 37 53 64 54 16 0 17 -5 11 -37z m1031 -117 c16 -12 16
-16 4 -20 -31 -11 -67 4 -55 23 9 15 28 14 51 -3z m74 -116 c12 -7 12 -13 4
-27 -8 -12 -8 -23 -1 -34 6 -9 7 -24 4 -33 -8 -20 -27 -12 -69 28 -27 24 -38
66 -18 66 6 0 10 -7 10 -15 0 -8 4 -15 10 -15 5 0 7 8 3 18 -5 14 -3 13 10 -3
16 -20 16 -20 17 3 0 24 7 27 30 12z m-1249 -103 c-8 -8 -11 -7 -11 4 0 20 13
34 18 19 3 -7 -1 -17 -7 -23z m35 -24 c-11 -11 -17 4 -9 23 7 18 8 18 11 1 2
-10 1 -21 -2 -24z m-606 17 c0 -5 -5 -10 -11 -10 -5 0 -7 5 -4 10 3 6 8 10 11
10 2 0 4 -4 4 -10z m575 -152 c-2 -75 1 -95 14 -106 14 -11 14 -12 -4 -10 -14
2 -20 -3 -20 -17 0 -11 5 -19 11 -18 15 3 27 -223 13 -248 -6 -13 -6 -32 1
-58 11 -42 10 -141 -2 -141 -7 0 -21 58 -18 75 6 31 -2 95 -11 95 -9 0 -10
-24 -5 -84 7 -93 -6 -123 -24 -54 -5 24 -14 59 -20 78 -36 135 -39 390 -5 390
8 0 11 8 8 20 -3 11 -10 20 -15 20 -10 0 0 42 12 50 4 3 15 21 25 40 16 33 34
60 40 60 1 0 1 -42 0 -92z m-371 -984 c22 -8 21 -67 -2 -87 -42 -38 -84 -37
-125 5 -19 19 -32 62 -22 77 7 12 123 15 149 5z"/>
<path d="M2420 4461 c-58 -8 -143 -41 -154 -60 -4 -6 -16 -11 -27 -11 -24 0
-139 -115 -162 -161 -20 -41 -6 -50 32 -20 14 11 53 35 86 52 166 86 241 84
655 -21 172 -44 315 -51 324 -17 2 7 9 31 16 54 23 76 -7 119 -64 89 -26 -13
-66 -10 -96 9 -5 3 -18 8 -27 10 -10 2 -31 8 -48 14 -55 18 -190 41 -245 41
-48 1 -120 9 -210 24 -14 2 -50 1 -80 -3z"/>
<path d="M4499 4429 c-31 -3 -62 -9 -68 -13 -7 -5 -38 -9 -69 -11 -101 -7
-146 -13 -191 -29 -24 -9 -55 -16 -68 -16 -14 0 -37 -13 -54 -29 -24 -25 -29
-37 -29 -80 0 -43 4 -53 25 -67 23 -15 34 -14 152 6 70 12 155 28 188 35 80
19 213 43 305 55 41 6 91 15 111 20 47 13 188 -5 250 -31 26 -12 66 -41 89
-65 22 -24 48 -44 56 -44 38 0 -5 109 -66 164 -93 84 -181 108 -405 110 -93 0
-195 -2 -226 -5z"/>
<path d="M2455 4044 c-27 -7 -70 -23 -95 -35 -25 -12 -65 -31 -90 -42 -25 -12
-71 -38 -104 -59 -32 -22 -68 -38 -80 -36 -18 3 -21 -3 -24 -40 -4 -52 22 -91
96 -145 29 -22 59 -56 76 -86 25 -48 71 -91 95 -91 6 0 37 -9 68 -20 59 -20
203 -29 203 -11 0 4 -32 11 -71 14 -76 6 -134 29 -189 76 -32 26 -35 34 -34
77 1 95 67 195 157 240 27 14 52 23 55 20 3 -4 -5 -27 -18 -54 -14 -26 -26
-71 -28 -102 -3 -49 0 -62 33 -115 64 -105 78 -115 159 -115 39 0 88 5 109 11
84 23 163 133 174 243 4 36 10 56 19 56 18 0 93 -87 117 -137 38 -78 54 -38
25 58 -27 90 -46 125 -92 170 -73 74 -191 113 -376 124 -58 4 -112 8 -120 9
-8 2 -37 -3 -65 -10z m293 -186 c7 -7 12 -21 12 -33 0 -45 -53 -61 -84 -26
-17 19 -17 21 1 45 19 27 52 33 71 14z m-50 -237 c11 -15 13 -14 26 2 18 23
36 22 36 -3 0 -11 -6 -20 -14 -20 -8 0 -16 -5 -18 -11 -7 -20 -70 -1 -108 31
l-35 30 50 -7 c28 -3 56 -13 63 -22z"/>
<path d="M4458 4029 c-97 -10 -171 -40 -252 -104 -85 -67 -133 -163 -118 -234
11 -51 28 -48 57 10 26 50 125 159 145 159 6 0 8 -21 4 -53 -8 -70 5 -113 60
-196 51 -77 67 -85 174 -97 60 -6 65 -5 111 26 53 36 105 106 121 160 6 19 7
61 4 93 -5 46 -4 57 8 57 25 0 91 -54 123 -101 17 -24 33 -45 38 -47 4 -2 7
-14 7 -27 0 -49 -87 -119 -195 -157 l-50 -18 51 4 c28 2 91 17 140 31 78 24
95 34 139 79 28 28 70 60 93 70 24 11 48 29 55 40 14 26 18 147 4 164 -5 6
-29 12 -53 12 -32 0 -46 5 -54 19 -6 12 -17 17 -28 14 -12 -3 -22 2 -25 11 -4
9 -17 16 -29 16 -13 1 -48 9 -78 20 -30 11 -67 19 -82 20 -15 0 -47 6 -70 14
-53 17 -198 24 -300 15z m90 -181 c20 -20 14 -48 -14 -60 -29 -14 -57 -2 -62
26 -8 37 48 62 76 34z m-32 -229 c16 -17 16 -22 4 -29 -18 -12 -40 -13 -40 -2
0 4 -3 17 -6 30 -8 29 16 30 42 1z"/>
<path d="M3806 2545 c-16 -9 -51 -31 -78 -50 -26 -19 -66 -38 -88 -41 -47 -8
-158 13 -181 33 -9 8 -40 23 -69 34 l-51 19 -71 -21 c-57 -17 -76 -19 -96 -10
-13 7 -27 9 -30 7 -6 -7 27 -56 52 -78 26 -21 101 -48 135 -48 14 0 50 -9 80
-21 30 -11 62 -18 72 -16 9 2 41 1 70 -4 39 -6 71 -5 114 6 82 20 181 35 235
35 25 0 63 9 85 19 47 21 115 93 115 121 0 17 -5 19 -32 14 -18 -3 -38 -7 -45
-9 -7 -2 -38 0 -70 6 -32 5 -71 12 -88 15 -17 3 -42 -2 -59 -11z"/>
<path d="M5280 2316 c0 -31 6 -34 13 -6 3 11 1 23 -4 26 -5 3 -9 -6 -9 -20z"/>
<path d="M2833 1999 c-35 -35 0 -72 76 -83 24 -4 66 -16 93 -28 43 -18 60 -20
137 -14 56 4 158 1 271 -9 146 -13 203 -14 293 -5 62 6 202 17 312 25 180 13
209 17 295 47 77 27 95 37 95 53 0 16 -6 20 -30 18 -16 -1 -100 -5 -185 -7
-120 -4 -164 -9 -195 -23 -36 -16 -75 -18 -402 -18 -349 0 -363 1 -377 20 -13
18 -18 19 -85 7 -94 -16 -157 -15 -206 4 -62 24 -79 26 -92 13z"/>
<path d="M7 6683 c-4 -3 -7 -99 -7 -212 l0 -206 48 -50 c26 -27 65 -66 87 -86
22 -20 57 -57 78 -82 41 -51 43 -82 5 -122 -10 -11 -30 -33 -43 -50 -21 -25
-27 -27 -34 -15 -5 8 -21 29 -35 45 -38 44 -56 87 -56 134 0 41 -5 46 -34 35
-14 -5 -16 -61 -16 -526 0 -344 4 -526 11 -539 11 -21 57 -23 71 -4 13 17 9
77 -6 89 -15 11 -19 31 -17 79 1 22 6 27 27 27 20 0 28 7 37 31 11 28 15 31
49 26 34 -5 36 -3 40 24 5 29 -5 39 -18 18 -9 -16 -24 10 -24 44 0 15 -3 27
-7 28 -30 3 -47 9 -54 21 -8 11 -10 11 -17 0 -7 -10 -13 -7 -25 11 -21 32 -40
105 -31 119 11 17 16 57 15 113 -1 66 14 100 55 125 26 17 36 19 51 9 34 -22
108 -123 123 -169 31 -93 51 -107 100 -73 14 10 30 18 37 19 7 1 20 9 29 18
15 15 15 19 0 41 -9 13 -16 35 -16 48 0 12 -4 27 -9 32 -5 6 -18 39 -31 75
-12 36 -25 67 -29 70 -7 5 -51 87 -51 95 0 2 13 0 29 -5 28 -8 42 -17 110 -76
20 -17 63 -50 96 -74 33 -24 78 -63 100 -85 37 -39 53 -60 116 -157 18 -28 31
-38 50 -38 36 0 41 31 16 101 -30 82 -23 148 22 202 12 14 12 22 1 45 l-13 27
-14 -35 c-14 -33 -65 -90 -81 -90 -11 0 -64 46 -147 127 -76 75 -137 158 -148
206 -5 18 -14 27 -27 27 -11 0 -27 11 -35 24 -9 13 -28 29 -43 35 -15 7 -37
24 -47 38 -11 15 -28 36 -38 46 -10 10 -32 46 -48 80 -28 58 -29 67 -24 138 6
72 6 77 -14 82 -29 7 -26 35 5 47 29 12 23 30 -10 30 -13 0 -31 9 -42 21 -30
33 -101 59 -117 42z"/>
<path d="M861 5518 c-8 -29 -6 -36 20 -60 16 -16 38 -28 48 -28 10 0 21 -6 24
-14 10 -25 147 -29 147 -4 0 20 -104 88 -133 88 -8 0 -24 11 -37 25 -33 35
-57 32 -69 -7z"/>
<path d="M241 5141 c-19 -34 -12 -62 24 -98 34 -34 36 -35 50 -17 21 28 18 68
-7 90 -52 45 -56 47 -67 25z"/>
<path d="M329 4986 l24 -13 -23 -16 c-12 -8 -19 -20 -15 -26 3 -7 -3 -11 -17
-12 -17 -1 -18 -3 -5 -6 9 -2 17 -9 17 -14 0 -17 39 -9 50 11 10 19 8 59 -5
80 -3 5 -16 10 -28 10 -22 -1 -22 -1 2 -14z"/>
<path d="M0 4544 c0 -180 -6 -170 110 -179 37 -2 59 -9 68 -22 10 -13 16 -14
19 -5 3 6 11 12 19 12 8 0 14 4 14 9 0 5 9 13 20 16 11 3 20 10 20 16 0 19
-36 49 -67 55 -18 3 -37 12 -44 20 -6 8 -17 14 -25 14 -25 0 -24 19 1 46 22
24 25 34 20 73 -3 25 -10 58 -16 73 -10 25 -14 26 -75 26 l-64 -1 0 -153z"/>
<path d="M0 4075 c0 -107 2 -195 5 -195 3 0 17 7 30 16 20 13 25 14 25 3 1
-20 80 -103 113 -117 16 -7 27 -19 27 -31 0 -11 9 -21 21 -24 12 -3 18 -10 15
-16 -4 -6 -13 -8 -21 -4 -9 3 -15 -1 -15 -11 0 -8 11 -18 25 -22 14 -3 25 -10
25 -14 0 -13 50 -18 58 -6 4 6 16 16 27 22 11 6 19 15 18 20 -1 5 6 17 14 27
12 12 12 17 3 17 -8 0 -11 9 -8 24 5 24 4 25 -43 19 -49 -6 -85 9 -73 29 6 10
-50 68 -65 68 -13 0 -21 82 -10 102 5 9 25 25 44 34 42 19 46 48 13 82 -53 54
-131 122 -140 122 -5 0 -21 11 -36 25 -50 47 -52 42 -52 -170z"/>
<path d="M516 4096 c-4 -15 -10 -24 -15 -22 -5 3 -14 -1 -21 -9 -13 -15 -6
-103 10 -119 5 -5 29 1 57 15 38 19 49 30 51 53 6 49 -6 76 -33 76 -13 0 -28
7 -33 16 -8 14 -10 12 -16 -10z"/>
<path d="M480 3920 c0 -5 7 -10 15 -10 8 0 15 5 15 10 0 6 -7 10 -15 10 -8 0
-15 -4 -15 -10z"/>
<path d="M461 3884 c0 -11 3 -14 6 -6 3 7 2 16 -1 19 -3 4 -6 -2 -5 -13z"/>
<path d="M7019 840 c-12 -8 21 -52 42 -56 8 -1 24 -4 37 -6 23 -4 54 -28 37
-28 -6 0 -4 -4 4 -9 23 -15 41 -1 41 33 0 26 -7 35 -40 54 -38 21 -96 27 -121
12z"/>
<path d="M0 275 l0 -275 35 0 c19 0 35 1 35 3 0 1 -5 18 -10 37 -16 55 -40
229 -40 296 0 34 8 85 17 114 16 49 16 53 0 62 -9 5 -17 16 -17 23 0 8 -4 15
-10 15 -6 0 -10 -98 -10 -275z"/>
<path d="M112 440 c0 -14 2 -19 5 -12 2 6 2 18 0 25 -3 6 -5 1 -5 -13z"/>
</g>
</svg>
